{"glyphs":{"0":{"ha":949,"x_min":0,"x_max":949,"o":"m 475 0 q 139 139 278 0 q 0 475 0 278 q 139 810 0 671 q 475 949 278 949 q 810 810 671 949 q 949 475 949 671 q 810 139 949 278 q 475 0 671 0 m 475 271 q 618 331 559 271 q 678 475 678 391 q 618 618 678 559 q 475 678 559 678 q 331 618 391 678 q 271 475 271 559 q 331 331 271 391 q 475 271 391 271 z "},"1":{"ha":407,"x_min":68,"x_max":340,"o":"m 340 949 l 340 0 l 68 0 l 68 949 l 340 949 z "},"2":{"ha":882,"x_min":68,"x_max":882,"o":"m 814 0 l 68 0 l 68 311 q 475 610 68 610 l 543 610 q 610 638 610 610 q 543 678 610 678 l 136 678 l 136 949 l 475 949 q 882 638 882 949 q 475 339 882 339 q 339 311 339 339 l 339 271 l 814 271 l 814 0 z "},"3":{"ha":882,"x_min":68,"x_max":814,"o":"m 271 339 l 271 610 l 475 610 q 543 644 543 610 q 475 678 543 678 l 68 678 l 68 949 l 475 949 q 814 644 814 949 q 746 475 814 534 q 814 305 814 416 q 475 0 814 0 l 68 0 l 68 271 l 475 271 q 543 305 543 271 q 475 339 543 339 l 271 339 z "},"4":{"ha":882,"x_min":0,"x_max":882,"o":"m 746 339 l 746 0 l 475 0 l 475 339 l 0 339 l 136 949 l 407 949 l 339 610 l 475 610 l 475 949 l 746 949 l 746 610 l 882 610 l 882 339 l 746 339 z "},"5":{"ha":882,"x_min":68,"x_max":882,"o":"m 136 0 l 136 271 l 543 271 q 610 305 610 271 q 543 339 610 339 l 68 339 l 68 949 l 814 949 l 814 678 l 339 678 l 339 610 l 610 610 q 882 311 882 610 q 610 0 882 0 l 136 0 z "},"6":{"ha":882,"x_min":63,"x_max":877,"o":"m 402 678 q 334 610 334 678 l 538 610 q 877 305 877 610 q 538 0 877 0 l 402 0 q 63 305 63 0 l 63 644 q 402 949 63 949 l 814 949 l 814 678 l 402 678 m 538 271 q 606 305 606 271 q 538 339 606 339 l 402 339 q 334 305 334 339 q 402 271 334 271 l 538 271 z "},"7":{"ha":886,"x_min":136,"x_max":850,"o":"m 443 678 l 136 678 l 136 949 l 850 949 l 475 0 l 172 0 l 443 678 z "},"8":{"ha":949,"x_min":68,"x_max":882,"o":"m 543 610 q 610 644 610 610 q 543 678 610 678 l 407 678 q 339 644 339 678 q 407 610 339 610 l 543 610 m 543 949 q 882 644 882 949 q 814 475 882 534 q 882 305 882 416 q 543 0 882 0 l 407 0 q 68 305 68 0 q 136 475 68 416 q 68 644 68 534 q 407 949 68 949 l 543 949 m 543 271 q 610 305 610 271 l 610 307 q 545 339 610 339 l 409 339 q 339 305 341 339 q 407 271 339 271 l 543 271 z "},"9":{"ha":949,"x_min":68,"x_max":882,"o":"m 543 271 q 610 339 610 271 l 407 339 q 68 644 68 339 q 407 949 68 949 l 543 949 q 882 644 882 949 l 882 305 q 543 0 882 0 l 131 0 l 131 271 l 543 271 m 407 678 q 339 644 339 678 q 407 610 339 610 l 543 610 q 610 644 610 610 q 543 678 610 678 l 407 678 z "},"\u0000":{"ha":0,"x_min":0,"x_max":0,"o":""},"\u001d":{"ha":0,"x_min":0,"x_max":0,"o":""}," ":{"ha":543,"x_min":0,"x_max":0,"o":""}," ":{"ha":543,"x_min":0,"x_max":0,"o":""},"!":{"ha":543,"x_min":102,"x_max":441,"o":"m 136 339 l 102 949 l 441 949 l 408 339 l 136 339 m 136 0 l 136 271 l 408 271 l 408 0 l 136 0 z "},"\"":{"ha":625,"x_min":8,"x_max":618,"o":"m 279 949 l 245 543 l 42 543 l 8 949 l 279 949 m 618 949 l 585 543 l 381 543 l 347 949 l 618 949 z "},"#":{"ha":1085,"x_min":68,"x_max":1017,"o":"m 203 407 l 203 543 l 68 543 l 68 814 l 203 814 l 203 949 l 475 949 l 475 814 l 610 814 l 610 949 l 882 949 l 882 814 l 1017 814 l 1017 543 l 882 543 l 882 407 l 1017 407 l 1017 136 l 882 136 l 882 0 l 610 0 l 610 136 l 475 136 l 475 0 l 203 0 l 203 136 l 68 136 l 68 407 l 203 407 m 475 543 l 475 407 l 610 407 l 610 543 l 475 543 z "},"$":{"ha":814,"x_min":-1,"x_max":813,"o":"m 339 949 l 339 1085 l 475 1085 l 475 949 l 678 949 l 679 678 l 338 678 q 271 647 271 678 q 338 610 271 610 l 474 610 q 813 308 813 610 q 475 0 813 0 l 475 -136 l 339 -136 l 339 0 l 56 0 l 56 271 l 474 271 q 542 308 542 271 q 474 339 542 339 l 338 339 q -1 647 -1 339 q 338 949 -1 949 l 339 949 z "},"%":{"ha":919,"x_min":24,"x_max":906,"o":"m 906 949 l 330 0 l 24 0 l 603 949 l 906 949 m 296 610 l 24 610 l 24 882 l 296 882 l 296 610 m 906 68 l 635 68 l 635 339 l 906 339 l 906 68 z "},"&":{"ha":949,"x_min":68,"x_max":949,"o":"m 543 610 q 610 644 610 610 q 543 678 610 678 l 407 678 q 339 644 339 678 q 407 610 339 610 l 543 610 m 543 271 q 610 305 610 271 l 610 307 q 545 339 610 339 l 409 339 q 339 305 341 339 q 407 271 339 271 l 543 271 m 407 0 q 68 305 68 0 q 136 475 68 416 q 68 644 68 534 q 407 949 68 949 l 543 949 q 882 644 882 949 q 814 475 882 534 q 882 305 882 416 q 880 271 882 288 l 949 271 l 949 0 l 407 0 z "},"'":{"ha":287,"x_min":8,"x_max":279,"o":"m 279 949 l 245 543 l 42 543 l 8 949 l 279 949 z "},"(":{"ha":543,"x_min":68,"x_max":543,"o":"m 68 610 q 543 1085 68 1085 l 543 814 q 339 610 339 814 l 339 339 q 543 136 339 136 l 543 -136 q 68 339 68 -136 l 68 610 z "},")":{"ha":543,"x_min":68,"x_max":543,"o":"m 543 339 q 68 -136 543 -136 l 68 136 q 271 339 271 136 l 271 610 q 68 814 271 814 l 68 1085 q 543 610 543 1085 l 543 339 z "},"*":{"ha":678,"x_min":0,"x_max":678,"o":"m 407 775 l 530 899 l 626 804 l 502 678 l 678 678 l 678 543 l 502 543 l 626 417 l 530 321 l 407 446 l 407 271 l 271 271 l 271 446 l 149 321 l 52 417 l 176 543 l 0 543 l 0 678 l 176 678 l 52 804 l 149 899 l 271 775 l 271 949 l 407 949 l 407 775 z "},"+":{"ha":678,"x_min":0,"x_max":678,"o":"m 475 610 l 678 610 l 678 339 l 475 339 l 475 136 l 203 136 l 203 339 l 0 339 l 0 610 l 203 610 l 203 814 l 475 814 l 475 610 z "},",":{"ha":407,"x_min":-68,"x_max":339,"o":"m 339 136 l -68 -271 l 68 136 l 339 136 z "},"-":{"ha":543,"x_min":0,"x_max":543,"o":"m 543 610 l 543 339 l 0 339 l 0 610 l 543 610 z "},"­":{"ha":543,"x_min":0,"x_max":543,"o":"m 543 610 l 543 339 l 0 339 l 0 610 l 543 610 z "},".":{"ha":407,"x_min":68,"x_max":339,"o":"m 339 0 l 68 0 l 68 271 l 339 271 l 339 0 z "},"/":{"ha":678,"x_min":-104,"x_max":787,"o":"m 787 1085 l 179 -136 l -104 -136 l 512 1085 l 787 1085 z "},":":{"ha":407,"x_min":68,"x_max":339,"o":"m 339 543 l 68 543 l 68 814 l 339 814 l 339 543 m 339 136 l 68 136 l 68 407 l 339 407 l 339 136 z "},";":{"ha":407,"x_min":-68,"x_max":339,"o":"m 339 814 l 339 543 l 68 543 l 68 814 l 339 814 m 339 271 l -68 -271 l 68 271 l 339 271 z "},";":{"ha":407,"x_min":-68,"x_max":339,"o":"m 339 814 l 339 543 l 68 543 l 68 814 l 339 814 m 339 271 l -68 -271 l 68 271 l 339 271 z "},"<":{"ha":745,"x_min":0,"x_max":746,"o":"m 0 610 l 746 949 l 746 678 l 271 475 l 746 271 l 746 0 l 0 339 l 0 610 z "},"=":{"ha":746,"x_min":68,"x_max":678,"o":"m 678 814 l 678 543 l 68 543 l 68 814 l 678 814 m 678 407 l 678 136 l 68 136 l 68 407 l 678 407 z "},">":{"ha":814,"x_min":68,"x_max":814,"o":"m 814 339 l 68 0 l 68 271 l 543 475 l 68 678 l 68 949 l 814 610 l 814 339 z "},"?":{"ha":781,"x_min":68,"x_max":778,"o":"m 168 610 l 405 610 q 473 638 473 610 q 405 678 473 678 l 68 678 l 68 949 l 371 949 q 778 638 778 949 q 439 409 778 427 l 439 339 l 168 339 l 168 610 m 439 0 l 168 0 l 168 271 l 439 271 l 439 0 z "},"@":{"ha":949,"x_min":0,"x_max":956,"o":"m 488 288 q 352 243 435 243 q 239 288 275 243 q 213 365 213 319 q 218 409 213 385 q 345 625 243 531 q 566 719 447 719 q 733 667 627 719 q 644 469 657 507 q 625 404 631 431 q 623 388 623 395 q 632 374 623 374 q 728 437 682 374 q 792 587 774 500 q 804 663 804 629 q 769 757 804 722 q 614 813 713 813 q 328 694 456 813 q 163 395 201 576 q 155 323 155 357 q 190 206 155 254 q 350 135 242 135 q 467 155 407 135 q 581 222 528 174 l 643 111 q 478 28 570 57 q 309 0 387 0 q 58 106 141 0 q 0 286 0 180 q 11 382 0 331 q 244 786 62 624 q 655 948 426 948 q 900 857 820 948 q 956 695 956 792 q 946 607 956 654 q 818 358 916 467 q 597 250 720 250 q 488 288 514 250 m 537 601 q 441 543 490 601 q 377 416 392 484 q 375 397 375 406 q 398 372 375 372 q 459 399 430 372 q 508 473 488 426 q 556 595 527 519 q 537 601 551 601 z "},"A":{"ha":780,"x_min":-197,"x_max":882,"o":"m 407 1289 l 882 0 l 291 0 l 394 271 l 519 271 l 407 610 l 68 -271 l -197 -271 l 253 903 l 407 1289 z "},"B":{"ha":882,"x_min":-68,"x_max":882,"o":"m 407 610 l 475 610 q 543 661 543 610 q 475 712 543 712 l 340 712 l 340 271 l 543 271 q 611 339 611 271 q 543 407 611 407 l 407 407 l 407 610 m 475 949 q 764 814 679 949 q 802 690 802 752 q 747 543 802 616 q 882 339 882 475 q 543 0 882 0 l 68 0 l 68 814 l -68 949 l 475 949 z "},"C":{"ha":814,"x_min":0,"x_max":746,"o":"m 475 949 l 746 949 l 746 678 l 475 678 q 331 618 391 678 q 271 475 271 559 q 331 331 271 391 q 475 271 391 271 l 746 271 l 746 0 l 475 0 q 139 139 278 0 q 0 475 0 278 q 139 810 0 671 q 475 949 278 949 z "},"D":{"ha":882,"x_min":1,"x_max":882,"o":"m 340 271 l 408 271 q 551 331 492 271 q 611 475 611 391 q 551 618 611 559 q 408 678 492 678 l 340 678 l 340 271 m 408 949 q 743 810 604 949 q 882 475 882 671 q 743 139 882 278 q 408 0 604 0 l 68 0 l 68 882 l 1 949 l 408 949 z "},"E":{"ha":814,"x_min":-68,"x_max":746,"o":"m 407 610 l 746 610 l 746 339 l 407 339 l 407 610 m 746 949 l 746 678 l 340 678 l 340 271 l 746 271 l 746 0 l 68 0 l 68 814 l -68 949 l 746 949 z "},"F":{"ha":814,"x_min":-68,"x_max":746,"o":"m 407 610 l 746 610 l 746 339 l 407 339 l 407 610 m 746 949 l 746 678 l 340 678 l 339 -271 l 68 -271 l 68 814 l -68 949 l 746 949 z "},"G":{"ha":814,"x_min":0,"x_max":746,"o":"m 475 271 l 475 610 l 746 610 l 746 -271 l 475 -271 l 475 0 q 139 139 278 0 q 0 475 0 278 q 139 810 0 671 q 475 949 278 949 l 746 949 l 746 678 l 475 678 q 331 618 391 678 q 271 475 271 559 q 331 331 271 391 q 475 271 391 271 z "},"H":{"ha":1017,"x_min":-68,"x_max":950,"o":"m 950 949 l 950 0 l 679 0 l 679 339 l 340 339 l 340 0 l 68 0 l 68 814 l -68 949 l 340 949 l 340 610 l 679 610 l 678 814 l 543 949 l 950 949 z "},"I":{"ha":407,"x_min":68,"x_max":340,"o":"m 340 949 l 340 0 l 68 0 l 68 949 l 340 949 z "},"J":{"ha":543,"x_min":0,"x_max":473,"o":"m 473 949 l 473 475 q 0 0 473 0 l 0 271 l 66 271 q 201 475 201 271 l 201 804 l 68 949 l 473 949 z "},"K":{"ha":949,"x_min":-68,"x_max":1086,"o":"m 340 949 l 340 509 l 641 949 l 950 949 l 610 434 l 1086 -271 l 781 -271 l 340 351 l 340 0 l 68 0 l 68 813 l -68 949 l 340 949 z "},"L":{"ha":610,"x_min":-68,"x_max":610,"o":"m 340 949 l 340 271 l 610 271 l 610 0 l 68 0 l 68 814 l -68 949 l 340 949 z "},"M":{"ha":1221,"x_min":68,"x_max":1154,"o":"m 68 1103 l 610 339 l 1153 1085 l 1154 0 l 882 0 l 882 271 l 611 -136 l 339 271 l 340 0 l 68 0 l 68 882 l 68 1103 z "},"N":{"ha":1017,"x_min":68,"x_max":949,"o":"m 949 949 l 949 -136 l 339 407 l 339 0 l 68 0 l 68 1085 l 678 509 l 678 814 l 543 949 l 949 949 z "},"O":{"ha":949,"x_min":0,"x_max":949,"o":"m 475 0 q 139 139 278 0 q 0 475 0 278 q 139 810 0 671 q 475 949 278 949 q 810 810 671 949 q 949 475 949 671 q 810 139 949 278 q 475 0 671 0 m 475 271 q 618 331 559 271 q 678 475 678 391 q 618 618 678 559 q 475 678 559 678 q 331 618 391 678 q 271 475 271 559 q 331 331 271 391 q 475 271 391 271 z "},"P":{"ha":882,"x_min":-68,"x_max":881,"o":"m 542 949 q 881 610 881 949 q 542 271 881 271 l 406 271 l 406 543 l 542 543 q 610 610 610 543 q 542 678 610 678 l 338 678 l 339 -271 l 68 -271 l 67 814 l -68 949 l 542 949 z "},"Q":{"ha":949,"x_min":0,"x_max":1153,"o":"m 618 331 q 648 361 618 331 q 678 475 678 391 q 618 618 678 559 q 475 678 559 678 q 331 618 391 678 q 271 475 271 559 q 331 331 271 391 q 475 271 391 271 q 618 331 559 271 m 650 32 q 475 0 569 0 q 139 139 278 0 q 0 475 0 278 q 139 810 0 671 q 475 949 278 949 q 810 810 671 949 q 949 475 949 671 q 861 197 949 318 l 1153 -271 l 846 -271 l 650 32 z "},"R":{"ha":882,"x_min":-68,"x_max":1084,"o":"m 542 949 q 881 610 881 949 q 745 304 881 339 l 1084 -271 l 782 -271 l 406 300 l 405 543 l 542 543 q 610 610 610 543 q 542 678 610 678 l 338 678 l 338 0 l 67 0 l 67 814 l -68 949 l 542 949 z "},"S":{"ha":814,"x_min":-1,"x_max":813,"o":"m 338 339 q -1 647 -1 339 q 338 949 -1 949 l 678 949 l 679 678 l 338 678 q 271 647 271 678 q 338 610 271 610 l 474 610 q 813 308 813 610 q 474 0 813 0 l 56 0 l 56 271 l 474 271 q 542 308 542 271 q 474 339 542 339 l 338 339 z "},"T":{"ha":678,"x_min":-3,"x_max":678,"o":"m -3 949 l 678 949 l 678 678 l 475 678 l 475 -271 l 203 -271 l 203 678 l 0 678 l -3 949 z "},"U":{"ha":949,"x_min":-68,"x_max":882,"o":"m 339 949 l 339 475 q 475 271 339 271 q 610 475 610 271 l 610 814 l 475 949 l 882 949 l 882 475 q 475 0 882 0 q 68 475 68 0 l 68 814 l -68 949 l 339 949 z "},"V":{"ha":882,"x_min":-35,"x_max":920,"o":"m 920 949 l 446 -271 l -35 949 l 242 949 l 446 407 l 620 872 l 543 949 l 920 949 z "},"W":{"ha":1289,"x_min":-30,"x_max":1329,"o":"m 1329 949 l 893 -271 l 647 300 l 407 -271 l -30 949 l 244 949 l 448 407 l 651 1017 l 854 407 l 1028 871 l 949 949 l 1329 949 z "},"X":{"ha":867,"x_min":-32,"x_max":918,"o":"m 291 475 l -32 949 l 275 949 l 441 703 l 610 949 l 918 949 l 599 473 l 918 0 l 616 0 l 439 245 l 278 0 l -32 0 l 291 475 z "},"Y":{"ha":832,"x_min":-68,"x_max":882,"o":"m 269 441 l -68 949 l 239 949 l 405 703 l 574 949 l 882 949 l 541 441 l 541 -271 l 269 -271 l 269 441 z "},"Z":{"ha":882,"x_min":-64,"x_max":954,"o":"m 814 0 l -64 0 l 445 678 l 132 678 l 136 949 l 954 949 l 479 271 l 814 271 l 814 0 z "},"[":{"ha":543,"x_min":68,"x_max":543,"o":"m 543 1085 l 543 814 l 339 814 l 339 136 l 543 136 l 543 -136 l 68 -136 l 68 1085 l 543 1085 z "},"\\":{"ha":949,"x_min":34,"x_max":926,"o":"m 309 1085 l 926 -136 l 642 -136 l 34 1085 l 309 1085 z "},"]":{"ha":543,"x_min":68,"x_max":543,"o":"m 543 1085 l 543 -136 l 68 -136 l 68 136 l 271 136 l 271 814 l 68 814 l 68 1085 l 543 1085 z "},"^":{"ha":746,"x_min":34,"x_max":712,"o":"m 576 949 l 712 610 l 441 610 l 373 780 l 305 610 l 34 610 l 170 949 l 576 949 z "},"_":{"ha":882,"x_min":68,"x_max":814,"o":"m 814 271 l 814 0 l 68 0 l 68 271 l 814 271 z "},"`":{"ha":475,"x_min":34,"x_max":441,"o":"m 34 1356 l 305 1356 l 441 1017 l 170 1017 l 34 1356 z "},"a":{"ha":780,"x_min":-197,"x_max":882,"o":"m 407 1289 l 882 0 l 291 0 l 394 271 l 519 271 l 407 610 l 68 -271 l -197 -271 l 253 903 l 407 1289 z "},"b":{"ha":882,"x_min":-68,"x_max":882,"o":"m 407 610 l 475 610 q 543 661 543 610 q 475 712 543 712 l 340 712 l 340 271 l 543 271 q 611 339 611 271 q 543 407 611 407 l 407 407 l 407 610 m 475 949 q 764 814 679 949 q 802 690 802 752 q 747 543 802 616 q 882 339 882 475 q 543 0 882 0 l 68 0 l 68 814 l -68 949 l 475 949 z "},"c":{"ha":814,"x_min":0,"x_max":746,"o":"m 475 949 l 746 949 l 746 678 l 475 678 q 331 618 391 678 q 271 475 271 559 q 331 331 271 391 q 475 271 391 271 l 746 271 l 746 0 l 475 0 q 139 139 278 0 q 0 475 0 278 q 139 810 0 671 q 475 949 278 949 z "},"d":{"ha":882,"x_min":1,"x_max":882,"o":"m 340 271 l 408 271 q 551 331 492 271 q 611 475 611 391 q 551 618 611 559 q 408 678 492 678 l 340 678 l 340 271 m 408 949 q 743 810 604 949 q 882 475 882 671 q 743 139 882 278 q 408 0 604 0 l 68 0 l 68 882 l 1 949 l 408 949 z "},"e":{"ha":814,"x_min":-68,"x_max":746,"o":"m 407 610 l 746 610 l 746 339 l 407 339 l 407 610 m 746 949 l 746 678 l 340 678 l 340 271 l 746 271 l 746 0 l 68 0 l 68 814 l -68 949 l 746 949 z "},"f":{"ha":814,"x_min":-68,"x_max":746,"o":"m 407 610 l 746 610 l 746 339 l 407 339 l 407 610 m 746 949 l 746 678 l 340 678 l 339 -271 l 68 -271 l 68 814 l -68 949 l 746 949 z "},"g":{"ha":814,"x_min":0,"x_max":746,"o":"m 475 271 l 475 610 l 746 610 l 746 -271 l 475 -271 l 475 0 q 139 139 278 0 q 0 475 0 278 q 139 810 0 671 q 475 949 278 949 l 746 949 l 746 678 l 475 678 q 331 618 391 678 q 271 475 271 559 q 331 331 271 391 q 475 271 391 271 z "},"h":{"ha":1017,"x_min":-68,"x_max":950,"o":"m 950 949 l 950 0 l 679 0 l 679 339 l 340 339 l 340 0 l 68 0 l 68 814 l -68 949 l 340 949 l 340 610 l 679 610 l 678 814 l 543 949 l 950 949 z "},"i":{"ha":407,"x_min":68,"x_max":340,"o":"m 340 949 l 340 0 l 68 0 l 68 949 l 340 949 z "},"j":{"ha":543,"x_min":0,"x_max":473,"o":"m 473 949 l 473 475 q 0 0 473 0 l 0 271 l 66 271 q 201 475 201 271 l 201 804 l 68 949 l 473 949 z "},"k":{"ha":949,"x_min":-68,"x_max":1086,"o":"m 340 949 l 340 509 l 641 949 l 950 949 l 610 434 l 1086 -271 l 781 -271 l 340 351 l 340 0 l 68 0 l 68 813 l -68 949 l 340 949 z "},"l":{"ha":610,"x_min":-68,"x_max":610,"o":"m 340 949 l 340 271 l 610 271 l 610 0 l 68 0 l 68 814 l -68 949 l 340 949 z "},"m":{"ha":1221,"x_min":68,"x_max":1154,"o":"m 68 1103 l 610 339 l 1153 1085 l 1154 0 l 882 0 l 882 271 l 611 -136 l 339 271 l 340 0 l 68 0 l 68 882 l 68 1103 z "},"n":{"ha":1017,"x_min":68,"x_max":949,"o":"m 949 949 l 949 -136 l 339 407 l 339 0 l 68 0 l 68 1085 l 678 509 l 678 814 l 543 949 l 949 949 z "},"o":{"ha":949,"x_min":0,"x_max":949,"o":"m 475 0 q 139 139 278 0 q 0 475 0 278 q 139 810 0 671 q 475 949 278 949 q 810 810 671 949 q 949 475 949 671 q 810 139 949 278 q 475 0 671 0 m 475 271 q 618 331 559 271 q 678 475 678 391 q 618 618 678 559 q 475 678 559 678 q 331 618 391 678 q 271 475 271 559 q 331 331 271 391 q 475 271 391 271 z "},"p":{"ha":882,"x_min":-68,"x_max":881,"o":"m 542 949 q 881 610 881 949 q 542 271 881 271 l 406 271 l 406 543 l 542 543 q 610 610 610 543 q 542 678 610 678 l 338 678 l 339 -271 l 68 -271 l 67 814 l -68 949 l 542 949 z "},"q":{"ha":949,"x_min":0,"x_max":1153,"o":"m 618 331 q 648 361 618 331 q 678 475 678 391 q 618 618 678 559 q 475 678 559 678 q 331 618 391 678 q 271 475 271 559 q 331 331 271 391 q 475 271 391 271 q 618 331 559 271 m 650 32 q 475 0 569 0 q 139 139 278 0 q 0 475 0 278 q 139 810 0 671 q 475 949 278 949 q 810 810 671 949 q 949 475 949 671 q 861 197 949 318 l 1153 -271 l 846 -271 l 650 32 z "},"r":{"ha":882,"x_min":-68,"x_max":1084,"o":"m 907 29 l 1084 -271 l 782 -271 l 585 28 l 907 29 m 585 28 l 406 300 l 405 543 l 542 543 q 610 610 610 543 q 542 678 610 678 l 338 678 l 338 0 l 67 0 l 67 814 l -68 949 l 542 949 q 881 610 881 949 q 745 304 881 339 l 907 29 l 585 28 z "},"s":{"ha":814,"x_min":-1,"x_max":813,"o":"m 338 339 q -1 647 -1 339 q 338 949 -1 949 l 678 949 l 679 678 l 338 678 q 271 647 271 678 q 338 610 271 610 l 474 610 q 813 308 813 610 q 474 0 813 0 l 56 0 l 56 271 l 474 271 q 542 308 542 271 q 474 339 542 339 l 338 339 z "},"t":{"ha":678,"x_min":-3,"x_max":678,"o":"m -3 949 l 678 949 l 678 678 l 475 678 l 475 -271 l 203 -271 l 203 678 l 0 678 l -3 949 z "},"u":{"ha":949,"x_min":-68,"x_max":882,"o":"m 339 949 l 339 475 q 475 271 339 271 q 610 475 610 271 l 610 814 l 475 949 l 882 949 l 882 475 q 475 0 882 0 q 68 475 68 0 l 68 814 l -68 949 l 339 949 z "},"v":{"ha":882,"x_min":-35,"x_max":920,"o":"m 920 949 l 446 -271 l -35 949 l 242 949 l 446 407 l 620 872 l 543 949 l 920 949 z "},"w":{"ha":1289,"x_min":-30,"x_max":1329,"o":"m 1329 949 l 893 -271 l 647 300 l 407 -271 l -30 949 l 244 949 l 448 407 l 651 1017 l 854 407 l 1028 871 l 949 949 l 1329 949 z "},"x":{"ha":867,"x_min":-32,"x_max":918,"o":"m 291 475 l -32 949 l 275 949 l 441 703 l 610 949 l 918 949 l 599 473 l 918 0 l 616 0 l 439 245 l 278 0 l -32 0 l 291 475 z "},"y":{"ha":832,"x_min":-68,"x_max":882,"o":"m 269 441 l -68 949 l 239 949 l 405 703 l 574 949 l 882 949 l 541 441 l 541 -271 l 269 -271 l 269 441 z "},"z":{"ha":882,"x_min":-64,"x_max":954,"o":"m 814 0 l -64 0 l 445 678 l 132 678 l 136 949 l 954 949 l 479 271 l 814 271 l 814 0 z "},"{":{"ha":678,"x_min":68,"x_max":678,"o":"m 203 610 q 678 1085 203 1085 l 678 814 q 475 610 475 814 l 475 339 q 678 136 475 136 l 678 -136 q 203 339 203 -136 l 68 339 l 68 610 l 203 610 z "},"|":{"ha":407,"x_min":68,"x_max":339,"o":"m 339 1085 l 339 -136 l 68 -136 l 68 1085 l 339 1085 z "},"}":{"ha":678,"x_min":68,"x_max":678,"o":"m 543 339 q 68 -136 543 -136 l 68 136 q 271 339 271 136 l 271 610 q 68 814 271 814 l 68 1085 q 543 610 543 1085 l 678 610 l 678 339 l 543 339 z "},"~":{"ha":746,"x_min":68,"x_max":746,"o":"m 68 294 l 68 565 q 254 599 170 599 q 407 565 339 599 q 505 543 452 543 q 746 633 610 543 l 746 361 q 505 271 610 271 q 407 294 452 271 q 254 328 339 328 q 68 294 170 328 z "},"¡":{"ha":407,"x_min":34,"x_max":373,"o":"m 339 610 l 373 0 l 34 0 l 68 610 l 339 610 m 339 678 l 68 678 l 68 949 l 339 949 l 339 678 z "},"¢":{"ha":968,"x_min":68,"x_max":968,"o":"m 475 945 l 475 1085 l 610 1085 l 610 945 q 878 810 764 925 q 968 689 935 754 l 726 564 q 686 618 711 593 q 543 678 627 678 q 399 618 458 678 q 339 475 339 559 q 399 331 339 391 q 543 271 458 271 q 686 331 627 271 q 715 367 703 348 l 945 221 q 878 139 917 178 q 610 4 764 24 l 610 -136 l 475 -136 l 475 4 q 207 139 321 24 q 68 475 68 278 q 207 810 68 671 q 475 945 321 925 z "},"£":{"ha":882,"x_min":68,"x_max":882,"o":"m 656 610 l 655 610 q 543 678 621 678 q 431 610 465 678 l 610 610 l 610 339 l 407 339 l 407 270 l 882 270 l 882 0 l 136 0 l 136 339 l 68 339 l 68 610 l 145 610 q 543 949 199 949 q 844 836 741 949 l 712 678 l 656 610 z "},"¤":{"ha":916,"x_min":34,"x_max":882,"o":"m 576 374 q 600 398 576 374 q 625 492 625 422 q 576 610 625 561 q 458 659 527 659 q 340 610 389 659 q 291 492 291 561 q 340 374 291 422 q 458 325 389 325 q 576 374 527 325 m 258 156 l 140 8 l 34 93 l 155 245 q 68 492 68 351 q 145 726 68 625 l 34 865 l 140 949 l 244 819 q 458 882 338 882 q 671 819 578 882 l 776 949 l 882 865 l 770 726 q 848 492 848 625 q 760 245 848 351 l 882 93 l 776 8 l 658 156 q 458 102 569 102 q 258 156 347 102 z "},"¥":{"ha":1017,"x_min":34,"x_max":983,"o":"m 373 203 l 373 271 l 203 271 l 203 407 l 373 407 l 34 949 l 323 949 l 509 678 l 694 949 l 983 949 l 644 407 l 814 407 l 814 271 l 644 271 l 644 203 l 814 203 l 814 68 l 644 68 l 644 0 l 373 0 l 373 68 l 203 68 l 203 203 l 373 203 z "},"¦":{"ha":407,"x_min":68,"x_max":339,"o":"m 68 509 l 68 1085 l 339 1085 l 339 509 l 68 509 m 339 441 l 339 -136 l 68 -136 l 68 441 l 339 441 z "},"§":{"ha":814,"x_min":-1,"x_max":813,"o":"m 338 339 q -1 647 -1 339 q 338 949 -1 949 l 678 949 l 679 678 l 338 678 q 271 647 271 678 q 338 610 271 610 l 474 610 q 813 308 813 610 q 474 0 813 0 l 56 0 l 56 271 l 474 271 q 542 308 542 271 q 474 339 542 339 l 338 339 z "},"¨":{"ha":678,"x_min":34,"x_max":644,"o":"m 305 1017 l 34 1017 l 34 1289 l 305 1289 l 305 1017 m 644 1017 l 373 1017 l 373 1289 l 644 1289 l 644 1017 z "},"©":{"ha":926,"x_min":-7,"x_max":942,"o":"m 467 0 q 132 139 271 0 q -7 475 -7 278 q 132 810 -7 671 q 467 949 271 949 q 803 810 664 949 q 942 475 942 671 q 803 139 942 278 q 467 0 664 0 m 469 136 q 708 234 609 136 q 806 473 806 333 q 708 712 806 613 q 469 810 609 810 q 230 712 329 810 q 132 473 132 613 q 230 234 132 333 q 469 136 329 136 m 484 712 l 603 712 l 620 576 l 484 576 q 412 547 442 576 q 382 475 382 517 q 412 403 382 433 q 484 373 442 373 l 603 373 l 620 237 l 484 237 q 316 307 386 237 q 247 475 247 376 q 316 643 247 573 q 484 712 386 712 z "},"«":{"ha":1526,"x_min":34,"x_max":1492,"o":"m 34 610 l 780 949 l 780 678 l 305 475 l 780 271 l 780 0 l 34 339 l 34 610 m 746 610 l 1492 949 l 1492 678 l 1017 475 l 1492 271 l 1492 0 l 746 339 l 746 610 z "},"®":{"ha":1017,"x_min":34,"x_max":983,"o":"m 509 0 q 173 139 312 0 q 34 475 34 278 q 173 810 34 671 q 509 949 312 949 q 844 810 705 949 q 983 475 983 671 q 844 139 983 278 q 509 0 705 0 m 511 136 q 749 234 650 136 q 848 473 848 333 q 749 712 848 613 q 511 810 650 810 q 272 712 370 810 q 173 473 173 613 q 272 234 173 333 q 511 136 370 136 m 457 577 l 457 509 l 559 509 q 593 543 593 509 q 559 577 593 577 l 457 577 m 479 373 l 457 373 l 457 237 l 321 237 l 321 713 l 559 713 q 729 543 729 713 q 626 381 729 410 l 729 237 l 576 237 l 479 373 z "},"¯":{"ha":610,"x_min":34,"x_max":576,"o":"m 576 1289 l 576 1017 l 34 1017 l 34 1289 l 576 1289 z "},"°":{"ha":339,"x_min":34,"x_max":305,"o":"m 305 1017 l 34 1017 l 34 1289 l 305 1289 l 305 1017 z "},"±":{"ha":746,"x_min":34,"x_max":712,"o":"m 509 610 l 712 610 l 712 339 l 509 339 l 509 136 l 237 136 l 237 339 l 34 339 l 34 610 l 237 610 l 237 814 l 509 814 l 509 610 m 712 -203 l 34 -203 l 34 68 l 712 68 l 712 -203 z "},"´":{"ha":475,"x_min":34,"x_max":441,"o":"m 305 1017 l 34 1017 l 170 1356 l 441 1356 l 305 1017 z "},"µ":{"ha":882,"x_min":34,"x_max":848,"o":"m 305 475 q 441 271 305 271 q 576 475 576 271 l 576 949 l 848 949 l 848 475 q 441 0 848 0 q 305 16 366 0 l 305 -203 l 34 -203 l 34 949 l 305 949 l 305 475 z "},"¶":{"ha":882,"x_min":34,"x_max":848,"o":"m 848 949 l 848 678 l 780 678 l 780 -203 l 509 -203 l 509 678 l 373 678 l 373 -203 l 102 -203 l 102 441 l 34 441 l 34 949 l 848 949 z "},"»":{"ha":1526,"x_min":34,"x_max":1492,"o":"m 1492 610 l 1492 339 l 746 0 l 746 271 l 1221 475 l 746 678 l 746 949 l 1492 610 m 780 610 l 780 339 l 34 0 l 34 271 l 509 475 l 34 678 l 34 949 l 780 610 z "},"¼":{"ha":1085,"x_min":34,"x_max":1051,"o":"m 271 947 l 271 475 l 136 475 l 136 812 l 102 812 l 119 947 l 271 947 m 916 949 l 340 0 l 34 0 l 612 949 l 916 949 m 983 170 l 983 0 l 848 0 l 848 170 l 610 170 l 678 475 l 814 475 l 780 305 l 848 305 l 848 475 l 983 475 l 983 305 l 1034 305 l 1051 170 l 983 170 z "},"½":{"ha":1085,"x_min":34,"x_max":1051,"o":"m 271 947 l 271 475 l 136 475 l 136 812 l 102 812 l 119 947 l 271 947 m 916 949 l 340 0 l 34 0 l 612 949 l 916 949 m 848 475 q 1051 319 1051 475 q 848 170 1051 170 q 780 156 780 170 l 780 136 l 1034 136 l 1051 0 l 644 0 l 644 156 q 848 305 644 305 l 882 305 q 916 319 916 305 q 882 339 916 339 l 678 339 l 661 475 l 848 475 z "},"¾":{"ha":1153,"x_min":34,"x_max":1119,"o":"m 983 949 l 408 0 l 102 0 l 680 949 l 983 949 m 1051 170 l 1051 0 l 916 0 l 916 170 l 678 170 l 746 475 l 882 475 l 848 305 l 916 305 l 916 475 l 1051 475 l 1051 305 l 1102 305 l 1119 170 l 1051 170 m 136 643 l 136 779 l 238 779 q 273 796 273 779 q 238 813 273 813 l 51 813 l 34 949 l 238 949 q 408 796 408 949 q 374 711 408 741 q 408 626 408 682 q 238 473 408 473 l 51 473 l 34 609 l 238 609 q 273 626 273 609 q 238 643 273 643 l 136 643 z "},"¿":{"ha":882,"x_min":68,"x_max":814,"o":"m 203 339 l 203 610 l 475 610 l 475 541 q 814 311 814 522 q 407 0 814 0 l 68 0 l 68 271 l 441 271 q 509 311 509 271 q 441 339 509 339 l 203 339 m 475 949 l 475 678 l 203 678 l 203 949 l 475 949 z "},"À":{"ha":780,"x_min":-197,"x_max":882,"o":"m 452 1165 l 882 0 l 291 0 l 394 271 l 519 271 l 407 610 l 68 -271 l -197 -271 l 253 903 l 357 1165 l 314 1165 l 246 1369 l 450 1369 l 517 1165 l 452 1165 z "},"Á":{"ha":780,"x_min":-197,"x_max":882,"o":"m 457 1153 l 882 0 l 291 0 l 394 271 l 519 271 l 407 610 l 68 -271 l -197 -271 l 253 903 l 353 1153 l 293 1153 l 361 1356 l 564 1356 l 496 1153 l 457 1153 z "},"Â":{"ha":780,"x_min":-197,"x_max":882,"o":"m 482 1085 l 882 0 l 291 0 l 394 271 l 519 271 l 407 610 l 68 -271 l -197 -271 l 253 903 l 326 1085 l 136 1085 l 407 1356 l 678 1085 l 482 1085 z "},"Ã":{"ha":780,"x_min":-197,"x_max":882,"o":"m 465 1132 l 882 0 l 291 0 l 394 271 l 519 271 l 407 610 l 68 -271 l -197 -271 l 253 903 l 358 1167 q 285 1176 324 1176 q 136 1149 217 1176 l 136 1369 q 285 1396 217 1396 q 407 1369 353 1396 q 486 1351 444 1351 q 678 1424 570 1351 l 678 1204 q 486 1131 570 1131 q 465 1132 475 1131 z "},"Ä":{"ha":780,"x_min":-197,"x_max":882,"o":"m 407 1289 l 882 0 l 291 0 l 394 271 l 519 271 l 407 610 l 68 -271 l -197 -271 l 253 903 l 407 1289 m 237 1153 q 165 1183 195 1153 q 136 1255 136 1213 q 165 1326 136 1297 q 237 1356 195 1356 q 309 1326 279 1356 q 339 1255 339 1297 q 309 1183 339 1213 q 237 1153 279 1153 m 576 1153 q 505 1183 534 1153 q 475 1255 475 1213 q 505 1326 475 1297 q 576 1356 534 1356 q 648 1326 618 1356 q 678 1255 678 1297 q 648 1183 678 1213 q 576 1153 618 1153 z "},"Å":{"ha":780,"x_min":-197,"x_max":882,"o":"m 407 1121 q 455 1141 435 1121 q 475 1189 475 1161 q 455 1237 475 1217 q 407 1257 435 1257 q 359 1237 379 1257 q 339 1189 339 1217 q 359 1141 339 1161 q 407 1121 379 1121 m 497 1043 l 882 0 l 291 0 l 394 271 l 519 271 l 407 610 l 68 -271 l -197 -271 l 253 903 l 311 1047 q 287 1067 298 1055 q 237 1187 237 1116 q 287 1307 237 1257 q 407 1356 336 1356 q 527 1307 477 1356 q 576 1187 576 1257 q 527 1067 576 1116 q 497 1043 513 1053 z "},"Æ":{"ha":1289,"x_min":-197,"x_max":1221,"o":"m 514 949 l 1221 949 l 1221 678 l 814 678 l 814 271 l 1221 271 l 1221 0 l 291 0 l 394 271 l 519 271 l 407 610 l 68 -271 l -197 -271 l 253 903 l 407 1289 l 514 949 m 882 610 l 1221 610 l 1221 339 l 882 339 l 882 610 z "},"Ç":{"ha":814,"x_min":0,"x_max":746,"o":"m 441 1 q 139 139 266 12 q 0 475 0 278 q 139 810 0 671 q 475 949 278 949 l 746 949 l 746 678 l 475 678 q 331 618 391 678 q 271 475 271 559 q 331 331 271 391 q 475 271 391 271 l 746 271 l 746 0 l 509 0 l 509 -24 q 644 -126 644 -24 q 509 -228 644 -228 l 407 -228 l 407 -160 l 475 -160 q 559 -143 543 -160 q 568 -126 568 -134 q 555 -105 568 -117 q 441 -92 543 -92 l 441 1 z "},"È":{"ha":814,"x_min":-68,"x_max":746,"o":"m 407 610 l 746 610 l 746 339 l 407 339 l 407 610 m 746 949 l 746 678 l 340 678 l 340 271 l 746 271 l 746 0 l 68 0 l 68 814 l -68 949 l 746 949 m 305 1017 l 237 1221 l 441 1221 l 509 1017 l 305 1017 z "},"É":{"ha":814,"x_min":-68,"x_max":746,"o":"m 407 610 l 746 610 l 746 339 l 407 339 l 407 610 m 746 949 l 746 678 l 340 678 l 340 271 l 746 271 l 746 0 l 68 0 l 68 814 l -68 949 l 746 949 m 509 1017 l 305 1017 l 373 1221 l 576 1221 l 509 1017 z "},"Ê":{"ha":814,"x_min":-68,"x_max":746,"o":"m 407 610 l 746 610 l 746 339 l 407 339 l 407 610 m 746 949 l 746 678 l 340 678 l 340 271 l 746 271 l 746 0 l 68 0 l 68 814 l -68 949 l 746 949 m 407 1289 l 678 1017 l 475 1017 l 407 1085 l 339 1017 l 136 1017 l 407 1289 z "},"Ë":{"ha":814,"x_min":-68,"x_max":746,"o":"m 407 610 l 746 610 l 746 339 l 407 339 l 407 610 m 746 949 l 746 678 l 340 678 l 340 271 l 746 271 l 746 0 l 68 0 l 68 814 l -68 949 l 746 949 m 274 1017 q 202 1047 232 1017 q 172 1119 172 1077 q 202 1191 172 1161 q 274 1221 232 1221 q 346 1191 316 1221 q 376 1119 376 1161 q 346 1047 376 1077 q 274 1017 316 1017 m 545 1017 q 473 1047 503 1017 q 444 1119 444 1077 q 473 1191 444 1161 q 545 1221 503 1221 q 617 1191 587 1221 q 647 1119 647 1161 q 617 1047 647 1077 q 545 1017 587 1017 z "},"Ì":{"ha":407,"x_min":68,"x_max":340,"o":"m 340 949 l 340 0 l 68 0 l 68 949 l 340 949 m 136 1017 l 68 1221 l 271 1221 l 339 1017 l 136 1017 z "},"Í":{"ha":407,"x_min":68,"x_max":340,"o":"m 340 949 l 340 0 l 68 0 l 68 949 l 340 949 m 271 1017 l 68 1017 l 136 1221 l 339 1221 l 271 1017 z "},"Î":{"ha":407,"x_min":-68,"x_max":475,"o":"m 340 949 l 340 0 l 68 0 l 68 949 l 340 949 m 203 1289 l 475 1017 l 271 1017 l 203 1085 l 136 1017 l -68 1017 l 203 1289 z "},"Ï":{"ha":407,"x_min":-35,"x_max":440,"o":"m 340 949 l 340 0 l 68 0 l 68 949 l 340 949 m 67 1017 q -5 1047 25 1017 q -35 1119 -35 1077 q -5 1191 -35 1161 q 67 1221 25 1221 q 139 1191 109 1221 q 169 1119 169 1161 q 139 1047 169 1077 q 67 1017 109 1017 m 338 1017 q 267 1047 296 1017 q 237 1119 237 1077 q 267 1191 237 1161 q 338 1221 296 1221 q 410 1191 380 1221 q 440 1119 440 1161 q 410 1047 440 1077 q 338 1017 380 1017 z "},"Ð":{"ha":882,"x_min":-68,"x_max":882,"o":"m 68 543 l 68 882 l 1 949 l 408 949 q 743 810 604 949 q 882 475 882 671 q 743 139 882 278 q 408 0 604 0 l 68 0 l 68 407 l -68 407 l -68 543 l 68 543 m 340 543 l 475 543 l 475 407 l 340 407 l 340 271 l 408 271 q 551 331 492 271 q 611 475 611 391 q 551 618 611 559 q 408 678 492 678 l 340 678 l 340 543 z "},"Ñ":{"ha":1017,"x_min":68,"x_max":949,"o":"m 949 949 l 949 -136 l 339 407 l 339 0 l 68 0 l 68 1085 l 678 509 l 678 814 l 543 949 l 949 949 m 235 1036 l 235 1256 q 384 1283 316 1283 q 506 1256 452 1283 q 585 1238 543 1238 q 777 1311 669 1238 l 777 1090 q 585 1017 669 1017 q 506 1036 543 1017 q 384 1063 452 1063 q 235 1036 316 1063 z "},"Ò":{"ha":949,"x_min":0,"x_max":949,"o":"m 475 0 q 139 139 278 0 q 0 475 0 278 q 139 810 0 671 q 475 949 278 949 q 810 810 671 949 q 949 475 949 671 q 810 139 949 278 q 475 0 671 0 m 475 271 q 618 331 559 271 q 678 475 678 391 q 618 618 678 559 q 475 678 559 678 q 331 618 391 678 q 271 475 271 559 q 331 331 271 391 q 475 271 391 271 m 407 1017 l 339 1221 l 543 1221 l 610 1017 l 407 1017 z "},"Ó":{"ha":949,"x_min":0,"x_max":949,"o":"m 475 0 q 139 139 278 0 q 0 475 0 278 q 139 810 0 671 q 475 949 278 949 q 810 810 671 949 q 949 475 949 671 q 810 139 949 278 q 475 0 671 0 m 475 271 q 618 331 559 271 q 678 475 678 391 q 618 618 678 559 q 475 678 559 678 q 331 618 391 678 q 271 475 271 559 q 331 331 271 391 q 475 271 391 271 m 543 1017 l 339 1017 l 407 1221 l 610 1221 l 543 1017 z "},"Ô":{"ha":949,"x_min":0,"x_max":949,"o":"m 475 0 q 139 139 278 0 q 0 475 0 278 q 139 810 0 671 q 475 949 278 949 q 810 810 671 949 q 949 475 949 671 q 810 139 949 278 q 475 0 671 0 m 475 271 q 618 331 559 271 q 678 475 678 391 q 618 618 678 559 q 475 678 559 678 q 331 618 391 678 q 271 475 271 559 q 331 331 271 391 q 475 271 391 271 m 475 1289 l 746 1017 l 543 1017 l 475 1085 l 407 1017 l 203 1017 l 475 1289 z "},"Õ":{"ha":949,"x_min":0,"x_max":949,"o":"m 475 0 q 139 139 278 0 q 0 475 0 278 q 139 810 0 671 q 475 949 278 949 q 810 810 671 949 q 949 475 949 671 q 810 139 949 278 q 475 0 671 0 m 475 271 q 618 331 559 271 q 678 475 678 391 q 618 618 678 559 q 475 678 559 678 q 331 618 391 678 q 271 475 271 559 q 331 331 271 391 q 475 271 391 271 m 203 1013 l 203 1234 q 353 1261 285 1261 q 475 1234 420 1261 q 553 1215 511 1215 q 746 1289 637 1215 l 746 1068 q 553 995 637 995 q 475 1013 511 995 q 353 1040 420 1040 q 203 1013 285 1040 z "},"Ö":{"ha":949,"x_min":0,"x_max":949,"o":"m 618 331 q 648 361 618 331 q 678 475 678 391 q 618 618 678 559 q 475 678 559 678 q 331 618 391 678 q 271 475 271 559 q 331 331 271 391 q 475 271 391 271 q 618 331 559 271 m 475 0 q 139 139 278 0 q 0 475 0 278 q 139 810 0 671 q 475 949 278 949 q 810 810 671 949 q 949 475 949 671 q 810 139 949 278 q 475 0 671 0 m 340 1017 q 269 1047 298 1017 q 239 1119 239 1077 q 269 1191 239 1161 q 340 1221 298 1221 q 412 1191 382 1221 q 442 1119 442 1161 q 412 1047 442 1077 q 340 1017 382 1017 m 612 1017 q 540 1047 570 1017 q 510 1119 510 1077 q 540 1191 510 1161 q 612 1221 570 1221 q 684 1191 654 1221 q 713 1119 713 1161 q 684 1047 713 1077 q 612 1017 654 1017 z "},"×":{"ha":826,"x_min":34,"x_max":792,"o":"m 405 245 l 341 136 l 34 136 l 257 475 l 35 814 l 341 814 l 407 703 l 482 813 l 792 814 l 565 473 l 792 136 l 477 136 l 405 245 z "},"Ø":{"ha":951,"x_min":-3,"x_max":946,"o":"m 435 675 q 328 618 374 665 q 268 475 268 559 q 288 385 268 425 l 435 675 m 514 275 q 615 331 571 287 q 675 475 675 391 q 656 561 675 522 l 514 275 m 789 827 q 807 810 798 819 q 946 475 946 671 q 807 139 946 278 q 471 0 668 0 q 380 8 425 0 l 309 -136 l 26 -136 l 155 121 q 136 139 145 130 q -3 475 -3 278 q 136 810 -3 671 q 471 949 275 949 q 569 940 522 949 l 642 1085 l 918 1085 l 789 827 z "},"Ù":{"ha":949,"x_min":-68,"x_max":882,"o":"m 339 949 l 339 475 q 475 271 339 271 q 610 475 610 271 l 610 814 l 475 949 l 882 949 l 882 475 q 475 0 882 0 q 68 475 68 0 l 68 814 l -68 949 l 339 949 m 339 1017 l 271 1221 l 475 1221 l 543 1017 l 339 1017 z "},"Ú":{"ha":949,"x_min":-68,"x_max":882,"o":"m 339 949 l 339 475 q 475 271 339 271 q 610 475 610 271 l 610 814 l 475 949 l 882 949 l 882 475 q 475 0 882 0 q 68 475 68 0 l 68 814 l -68 949 l 339 949 m 543 1017 l 339 1017 l 407 1221 l 610 1221 l 543 1017 z "},"Û":{"ha":949,"x_min":-68,"x_max":882,"o":"m 339 949 l 339 475 q 475 271 339 271 q 610 475 610 271 l 610 814 l 475 949 l 882 949 l 882 475 q 475 0 882 0 q 68 475 68 0 l 68 814 l -68 949 l 339 949 m 475 1289 l 746 1017 l 543 1017 l 475 1085 l 407 1017 l 203 1017 l 475 1289 z "},"Ü":{"ha":949,"x_min":-68,"x_max":882,"o":"m 339 949 l 339 475 q 475 271 339 271 q 610 475 610 271 l 610 814 l 475 949 l 882 949 l 882 475 q 475 0 882 0 q 68 475 68 0 l 68 814 l -68 949 l 339 949 m 339 1017 q 267 1047 297 1017 q 237 1119 237 1077 q 267 1191 237 1161 q 339 1221 297 1221 q 411 1191 381 1221 q 441 1119 441 1161 q 411 1047 441 1077 q 339 1017 381 1017 m 610 1017 q 538 1047 568 1017 q 509 1119 509 1077 q 538 1191 509 1161 q 610 1221 568 1221 q 682 1191 652 1221 q 712 1119 712 1161 q 682 1047 712 1077 q 610 1017 652 1017 z "},"Ý":{"ha":832,"x_min":-68,"x_max":882,"o":"m 269 441 l -68 949 l 239 949 l 405 703 l 574 949 l 882 949 l 541 441 l 541 -271 l 269 -271 l 269 441 m 499 1017 l 296 1017 l 363 1221 l 567 1221 l 499 1017 z "},"Þ":{"ha":883,"x_min":73,"x_max":887,"o":"m 345 916 l 548 916 q 887 543 887 916 q 548 170 887 170 l 345 170 l 345 0 l 73 0 l 73 1051 l 345 1051 l 345 916 m 345 441 l 548 441 q 616 543 616 441 q 548 644 616 644 l 345 644 l 345 441 z "},"ß":{"ha":881,"x_min":73,"x_max":887,"o":"m 480 610 q 548 661 548 610 q 480 712 548 712 l 345 712 l 345 610 l 480 610 m 345 0 l 73 0 l 73 949 l 480 949 q 768 814 684 949 q 807 690 807 752 q 751 543 807 616 q 887 339 887 475 q 548 0 887 0 l 412 0 l 412 271 l 548 271 q 616 339 616 271 q 548 407 616 407 l 345 407 l 345 0 z "},"à":{"ha":780,"x_min":-197,"x_max":882,"o":"m 452 1165 l 882 0 l 291 0 l 394 271 l 519 271 l 407 610 l 68 -271 l -197 -271 l 253 903 l 357 1165 l 314 1165 l 246 1369 l 450 1369 l 517 1165 l 452 1165 z "},"á":{"ha":780,"x_min":-197,"x_max":882,"o":"m 457 1153 l 882 0 l 291 0 l 394 271 l 519 271 l 407 610 l 68 -271 l -197 -271 l 253 903 l 353 1153 l 293 1153 l 361 1356 l 564 1356 l 496 1153 l 457 1153 z "},"â":{"ha":780,"x_min":-197,"x_max":882,"o":"m 482 1085 l 882 0 l 291 0 l 394 271 l 519 271 l 407 610 l 68 -271 l -197 -271 l 253 903 l 326 1085 l 136 1085 l 407 1356 l 678 1085 l 482 1085 z "},"ã":{"ha":780,"x_min":-197,"x_max":882,"o":"m 465 1132 l 882 0 l 291 0 l 394 271 l 519 271 l 407 610 l 68 -271 l -197 -271 l 253 903 l 358 1167 q 285 1176 324 1176 q 136 1149 217 1176 l 136 1369 q 285 1396 217 1396 q 407 1369 353 1396 q 486 1351 444 1351 q 678 1424 570 1351 l 678 1204 q 486 1131 570 1131 q 465 1132 475 1131 z "},"ä":{"ha":780,"x_min":-197,"x_max":882,"o":"m 407 1289 l 882 0 l 291 0 l 394 271 l 519 271 l 407 610 l 68 -271 l -197 -271 l 253 903 l 407 1289 m 237 1153 q 165 1183 195 1153 q 136 1255 136 1213 q 165 1326 136 1297 q 237 1356 195 1356 q 309 1326 279 1356 q 339 1255 339 1297 q 309 1183 339 1213 q 237 1153 279 1153 m 576 1153 q 505 1183 534 1153 q 475 1255 475 1213 q 505 1326 475 1297 q 576 1356 534 1356 q 648 1326 618 1356 q 678 1255 678 1297 q 648 1183 678 1213 q 576 1153 618 1153 z "},"å":{"ha":780,"x_min":-197,"x_max":882,"o":"m 407 1121 q 455 1141 435 1121 q 475 1189 475 1161 q 455 1237 475 1217 q 407 1257 435 1257 q 359 1237 379 1257 q 339 1189 339 1217 q 359 1141 339 1161 q 407 1121 379 1121 m 497 1043 l 882 0 l 291 0 l 394 271 l 519 271 l 407 610 l 68 -271 l -197 -271 l 253 903 l 311 1047 q 287 1067 298 1055 q 237 1187 237 1116 q 287 1307 237 1257 q 407 1356 336 1356 q 527 1307 477 1356 q 576 1187 576 1257 q 527 1067 576 1116 q 497 1043 513 1053 z "},"æ":{"ha":1289,"x_min":-197,"x_max":1221,"o":"m 514 949 l 1221 949 l 1221 678 l 814 678 l 814 271 l 1221 271 l 1221 0 l 291 0 l 394 271 l 519 271 l 407 610 l 68 -271 l -197 -271 l 253 903 l 407 1289 l 514 949 m 882 610 l 1221 610 l 1221 339 l 882 339 l 882 610 z "},"ç":{"ha":814,"x_min":0,"x_max":746,"o":"m 441 1 q 139 139 266 12 q 0 475 0 278 q 139 810 0 671 q 475 949 278 949 l 746 949 l 746 678 l 475 678 q 331 618 391 678 q 271 475 271 559 q 331 331 271 391 q 475 271 391 271 l 746 271 l 746 0 l 509 0 l 509 -24 q 644 -126 644 -24 q 509 -228 644 -228 l 407 -228 l 407 -160 l 475 -160 q 559 -143 543 -160 q 568 -126 568 -134 q 555 -105 568 -117 q 441 -92 543 -92 l 441 1 z "},"è":{"ha":814,"x_min":-68,"x_max":746,"o":"m 407 610 l 746 610 l 746 339 l 407 339 l 407 610 m 746 949 l 746 678 l 340 678 l 340 271 l 746 271 l 746 0 l 68 0 l 68 814 l -68 949 l 746 949 m 305 1017 l 237 1221 l 441 1221 l 509 1017 l 305 1017 z "},"é":{"ha":814,"x_min":-68,"x_max":746,"o":"m 407 610 l 746 610 l 746 339 l 407 339 l 407 610 m 746 949 l 746 678 l 340 678 l 340 271 l 746 271 l 746 0 l 68 0 l 68 814 l -68 949 l 746 949 m 509 1017 l 305 1017 l 373 1221 l 576 1221 l 509 1017 z "},"ê":{"ha":814,"x_min":-68,"x_max":746,"o":"m 407 610 l 746 610 l 746 339 l 407 339 l 407 610 m 746 949 l 746 678 l 340 678 l 340 271 l 746 271 l 746 0 l 68 0 l 68 814 l -68 949 l 746 949 m 407 1289 l 678 1017 l 475 1017 l 407 1085 l 339 1017 l 136 1017 l 407 1289 z "},"ë":{"ha":814,"x_min":-68,"x_max":746,"o":"m 407 610 l 746 610 l 746 339 l 407 339 l 407 610 m 746 949 l 746 678 l 340 678 l 340 271 l 746 271 l 746 0 l 68 0 l 68 814 l -68 949 l 746 949 m 274 1017 q 202 1047 232 1017 q 172 1119 172 1077 q 202 1191 172 1161 q 274 1221 232 1221 q 346 1191 316 1221 q 376 1119 376 1161 q 346 1047 376 1077 q 274 1017 316 1017 m 545 1017 q 473 1047 503 1017 q 444 1119 444 1077 q 473 1191 444 1161 q 545 1221 503 1221 q 617 1191 587 1221 q 647 1119 647 1161 q 617 1047 647 1077 q 545 1017 587 1017 z "},"ì":{"ha":407,"x_min":68,"x_max":340,"o":"m 340 949 l 340 0 l 68 0 l 68 949 l 340 949 m 136 1017 l 68 1221 l 271 1221 l 339 1017 l 136 1017 z "},"í":{"ha":407,"x_min":68,"x_max":340,"o":"m 340 949 l 340 0 l 68 0 l 68 949 l 340 949 m 271 1017 l 68 1017 l 136 1221 l 339 1221 l 271 1017 z "},"î":{"ha":407,"x_min":-68,"x_max":475,"o":"m 340 949 l 340 0 l 68 0 l 68 949 l 340 949 m 203 1289 l 475 1017 l 271 1017 l 203 1085 l 136 1017 l -68 1017 l 203 1289 z "},"ï":{"ha":407,"x_min":-35,"x_max":440,"o":"m 340 949 l 340 0 l 68 0 l 68 949 l 340 949 m 67 1017 q -5 1047 25 1017 q -35 1119 -35 1077 q -5 1191 -35 1161 q 67 1221 25 1221 q 139 1191 109 1221 q 169 1119 169 1161 q 139 1047 169 1077 q 67 1017 109 1017 m 338 1017 q 267 1047 296 1017 q 237 1119 237 1077 q 267 1191 237 1161 q 338 1221 296 1221 q 410 1191 380 1221 q 440 1119 440 1161 q 410 1047 440 1077 q 338 1017 380 1017 z "},"ð":{"ha":949,"x_min":0,"x_max":949,"o":"m 678 475 q 618 618 678 559 q 475 678 559 678 q 331 618 391 678 q 271 475 271 559 q 331 331 271 391 q 475 271 391 271 q 618 331 559 271 q 678 475 678 391 m 503 1144 l 834 787 l 833 786 q 949 475 949 654 q 810 139 949 278 q 475 0 671 0 q 139 139 278 0 q 0 475 0 278 q 139 810 0 671 q 337 930 227 898 l 296 976 l 197 897 l 79 1032 l 178 1111 l 115 1178 l 315 1343 l 379 1278 l 473 1352 l 604 1225 l 503 1144 z "},"ñ":{"ha":1017,"x_min":68,"x_max":949,"o":"m 949 949 l 949 -136 l 339 407 l 339 0 l 68 0 l 68 1085 l 678 509 l 678 814 l 543 949 l 949 949 m 235 1036 l 235 1256 q 384 1283 316 1283 q 506 1256 452 1283 q 585 1238 543 1238 q 777 1311 669 1238 l 777 1090 q 585 1017 669 1017 q 506 1036 543 1017 q 384 1063 452 1063 q 235 1036 316 1063 z "},"ò":{"ha":949,"x_min":0,"x_max":949,"o":"m 475 0 q 139 139 278 0 q 0 475 0 278 q 139 810 0 671 q 475 949 278 949 q 810 810 671 949 q 949 475 949 671 q 810 139 949 278 q 475 0 671 0 m 475 271 q 618 331 559 271 q 678 475 678 391 q 618 618 678 559 q 475 678 559 678 q 331 618 391 678 q 271 475 271 559 q 331 331 271 391 q 475 271 391 271 m 407 1017 l 339 1221 l 543 1221 l 610 1017 l 407 1017 z "},"ó":{"ha":949,"x_min":0,"x_max":949,"o":"m 475 0 q 139 139 278 0 q 0 475 0 278 q 139 810 0 671 q 475 949 278 949 q 810 810 671 949 q 949 475 949 671 q 810 139 949 278 q 475 0 671 0 m 475 271 q 618 331 559 271 q 678 475 678 391 q 618 618 678 559 q 475 678 559 678 q 331 618 391 678 q 271 475 271 559 q 331 331 271 391 q 475 271 391 271 m 543 1017 l 339 1017 l 407 1221 l 610 1221 l 543 1017 z "},"ô":{"ha":949,"x_min":0,"x_max":949,"o":"m 475 0 q 139 139 278 0 q 0 475 0 278 q 139 810 0 671 q 475 949 278 949 q 810 810 671 949 q 949 475 949 671 q 810 139 949 278 q 475 0 671 0 m 475 271 q 618 331 559 271 q 678 475 678 391 q 618 618 678 559 q 475 678 559 678 q 331 618 391 678 q 271 475 271 559 q 331 331 271 391 q 475 271 391 271 m 475 1289 l 746 1017 l 543 1017 l 475 1085 l 407 1017 l 203 1017 l 475 1289 z "},"õ":{"ha":949,"x_min":0,"x_max":949,"o":"m 475 0 q 139 139 278 0 q 0 475 0 278 q 139 810 0 671 q 475 949 278 949 q 810 810 671 949 q 949 475 949 671 q 810 139 949 278 q 475 0 671 0 m 475 271 q 618 331 559 271 q 678 475 678 391 q 618 618 678 559 q 475 678 559 678 q 331 618 391 678 q 271 475 271 559 q 331 331 271 391 q 475 271 391 271 m 203 1013 l 203 1234 q 353 1261 285 1261 q 475 1234 420 1261 q 553 1215 511 1215 q 746 1289 637 1215 l 746 1068 q 553 995 637 995 q 475 1013 511 995 q 353 1040 420 1040 q 203 1013 285 1040 z "},"ö":{"ha":949,"x_min":0,"x_max":949,"o":"m 618 331 q 648 361 618 331 q 678 475 678 391 q 618 618 678 559 q 475 678 559 678 q 331 618 391 678 q 271 475 271 559 q 331 331 271 391 q 475 271 391 271 q 618 331 559 271 m 475 0 q 139 139 278 0 q 0 475 0 278 q 139 810 0 671 q 475 949 278 949 q 810 810 671 949 q 949 475 949 671 q 810 139 949 278 q 475 0 671 0 m 340 1017 q 269 1047 298 1017 q 239 1119 239 1077 q 269 1191 239 1161 q 340 1221 298 1221 q 412 1191 382 1221 q 442 1119 442 1161 q 412 1047 442 1077 q 340 1017 382 1017 m 612 1017 q 540 1047 570 1017 q 510 1119 510 1077 q 540 1191 510 1161 q 612 1221 570 1221 q 684 1191 654 1221 q 713 1119 713 1161 q 684 1047 713 1077 q 612 1017 654 1017 z "},"÷":{"ha":814,"x_min":68,"x_max":746,"o":"m 746 610 l 746 339 l 68 339 l 68 610 l 746 610 m 543 678 l 271 678 l 271 949 l 543 949 l 543 678 m 543 0 l 271 0 l 271 271 l 543 271 l 543 0 z "},"ø":{"ha":951,"x_min":-3,"x_max":946,"o":"m 435 675 q 328 618 374 665 q 268 475 268 559 q 288 385 268 425 l 435 675 m 514 275 q 615 331 571 287 q 675 475 675 391 q 656 561 675 522 l 514 275 m 789 827 q 807 810 798 819 q 946 475 946 671 q 807 139 946 278 q 471 0 668 0 q 380 8 425 0 l 309 -136 l 26 -136 l 155 121 q 136 139 145 130 q -3 475 -3 278 q 136 810 -3 671 q 471 949 275 949 q 569 940 522 949 l 642 1085 l 918 1085 l 789 827 z "},"ù":{"ha":949,"x_min":-68,"x_max":882,"o":"m 339 949 l 339 475 q 475 271 339 271 q 610 475 610 271 l 610 814 l 475 949 l 882 949 l 882 475 q 475 0 882 0 q 68 475 68 0 l 68 814 l -68 949 l 339 949 m 339 1017 l 271 1221 l 475 1221 l 543 1017 l 339 1017 z "},"ú":{"ha":949,"x_min":-68,"x_max":882,"o":"m 339 949 l 339 475 q 475 271 339 271 q 610 475 610 271 l 610 814 l 475 949 l 882 949 l 882 475 q 475 0 882 0 q 68 475 68 0 l 68 814 l -68 949 l 339 949 m 543 1017 l 339 1017 l 407 1221 l 610 1221 l 543 1017 z "},"û":{"ha":949,"x_min":-68,"x_max":882,"o":"m 339 949 l 339 475 q 475 271 339 271 q 610 475 610 271 l 610 814 l 475 949 l 882 949 l 882 475 q 475 0 882 0 q 68 475 68 0 l 68 814 l -68 949 l 339 949 m 475 1289 l 746 1017 l 543 1017 l 475 1085 l 407 1017 l 203 1017 l 475 1289 z "},"ü":{"ha":949,"x_min":-68,"x_max":882,"o":"m 339 949 l 339 475 q 475 271 339 271 q 610 475 610 271 l 610 814 l 475 949 l 882 949 l 882 475 q 475 0 882 0 q 68 475 68 0 l 68 814 l -68 949 l 339 949 m 339 1017 q 267 1047 297 1017 q 237 1119 237 1077 q 267 1191 237 1161 q 339 1221 297 1221 q 411 1191 381 1221 q 441 1119 441 1161 q 411 1047 441 1077 q 339 1017 381 1017 m 610 1017 q 538 1047 568 1017 q 509 1119 509 1077 q 538 1191 509 1161 q 610 1221 568 1221 q 682 1191 652 1221 q 712 1119 712 1161 q 682 1047 712 1077 q 610 1017 652 1017 z "},"ý":{"ha":832,"x_min":-68,"x_max":882,"o":"m 269 441 l -68 949 l 239 949 l 405 703 l 574 949 l 882 949 l 541 441 l 541 -271 l 269 -271 l 269 441 m 499 1017 l 296 1017 l 363 1221 l 567 1221 l 499 1017 z "},"þ":{"ha":872,"x_min":73,"x_max":887,"o":"m 345 916 l 548 916 q 887 543 887 916 q 548 170 887 170 l 345 170 l 345 0 l 73 0 l 73 1051 l 345 1051 l 345 916 m 345 441 l 548 441 q 616 543 616 441 q 548 644 616 644 l 345 644 l 345 441 z "},"ÿ":{"ha":832,"x_min":-68,"x_max":882,"o":"m 269 441 l -68 949 l 239 949 l 405 703 l 574 949 l 882 949 l 541 441 l 541 -271 l 269 -271 l 269 441 m 271 1017 q 199 1047 229 1017 q 170 1119 170 1077 q 199 1191 170 1161 q 271 1221 229 1221 q 343 1191 313 1221 q 373 1119 373 1161 q 343 1047 373 1077 q 271 1017 313 1017 m 543 1017 q 471 1047 500 1017 q 441 1119 441 1077 q 471 1191 441 1161 q 543 1221 500 1221 q 614 1191 585 1221 q 644 1119 644 1161 q 614 1047 644 1077 q 543 1017 585 1017 z "},"Œ":{"ha":1424,"x_min":0,"x_max":1356,"o":"m 618 331 q 648 361 618 331 q 678 475 678 391 q 618 618 678 559 q 475 678 559 678 q 331 618 391 678 q 271 475 271 559 q 331 331 271 391 q 475 271 391 271 q 618 331 559 271 m 1017 610 l 1356 610 l 1356 339 l 1017 339 l 1017 610 m 678 44 q 475 0 586 0 q 139 139 278 0 q 0 475 0 278 q 139 810 0 671 q 475 949 278 949 q 678 905 586 949 l 678 949 l 1356 949 l 1356 678 l 950 678 l 950 271 l 1356 271 l 1356 0 l 678 0 l 678 44 z "},"œ":{"ha":1424,"x_min":0,"x_max":1356,"o":"m 618 331 q 648 361 618 331 q 678 475 678 391 q 618 618 678 559 q 475 678 559 678 q 331 618 391 678 q 271 475 271 559 q 331 331 271 391 q 475 271 391 271 q 618 331 559 271 m 1017 610 l 1356 610 l 1356 339 l 1017 339 l 1017 610 m 678 44 q 475 0 586 0 q 139 139 278 0 q 0 475 0 278 q 139 810 0 671 q 475 949 278 949 q 678 905 586 949 l 678 949 l 1356 949 l 1356 678 l 950 678 l 950 271 l 1356 271 l 1356 0 l 678 0 l 678 44 z "},"ɶ":{"ha":1424,"x_min":0,"x_max":1356,"o":"m 618 331 q 648 361 618 331 q 678 475 678 391 q 618 618 678 559 q 475 678 559 678 q 331 618 391 678 q 271 475 271 559 q 331 331 271 391 q 475 271 391 271 q 618 331 559 271 m 1017 610 l 1356 610 l 1356 339 l 1017 339 l 1017 610 m 678 44 q 475 0 586 0 q 139 139 278 0 q 0 475 0 278 q 139 810 0 671 q 475 949 278 949 q 678 905 586 949 l 678 949 l 1356 949 l 1356 678 l 950 678 l 950 271 l 1356 271 l 1356 0 l 678 0 l 678 44 z "},"ˆ":{"ha":746,"x_min":34,"x_max":712,"o":"m 576 1356 l 712 1017 l 441 1017 l 373 1187 l 305 1017 l 34 1017 l 170 1356 l 576 1356 z "},"ˇ":{"ha":746,"x_min":34,"x_max":712,"o":"m 373 1187 l 441 1356 l 712 1356 l 576 1017 l 170 1017 l 34 1356 l 305 1356 l 373 1187 z "},"ˉ":{"ha":610,"x_min":34,"x_max":576,"o":"m 576 1289 l 576 1017 l 34 1017 l 34 1289 l 576 1289 z "},"˙":{"ha":339,"x_min":34,"x_max":305,"o":"m 305 1017 l 34 1017 l 34 1289 l 305 1289 l 305 1017 z "},"˜":{"ha":746,"x_min":68,"x_max":610,"o":"m 68 1013 l 68 1234 q 217 1261 149 1261 q 339 1234 285 1261 q 418 1215 376 1215 q 610 1289 502 1215 l 610 1068 q 418 995 502 995 q 339 1013 376 995 q 217 1040 285 1040 q 68 1013 149 1040 z "},"˝":{"ha":845,"x_min":34,"x_max":811,"o":"m 305 610 l 34 610 l 170 949 l 441 949 l 305 610 m 675 610 l 404 610 l 540 949 l 811 949 l 675 610 z "},"̀":{"ha":475,"x_min":136,"x_max":407,"o":"m 203 1017 l 136 1221 l 339 1221 l 407 1017 l 203 1017 z "},"́":{"ha":475,"x_min":136,"x_max":407,"o":"m 339 1017 l 136 1017 l 203 1221 l 407 1221 l 339 1017 z "},"̂":{"ha":610,"x_min":0,"x_max":543,"o":"m 271 1289 l 543 1017 l 339 1017 l 271 1085 l 203 1017 l 0 1017 l 271 1289 z "},"̃":{"ha":746,"x_min":68,"x_max":610,"o":"m 68 1013 l 68 1234 q 217 1261 149 1261 q 339 1234 285 1261 q 418 1215 376 1215 q 610 1289 502 1215 l 610 1068 q 418 995 502 995 q 339 1013 376 995 q 217 1040 285 1040 q 68 1013 149 1040 z "},"̄":{"ha":610,"x_min":34,"x_max":576,"o":"m 576 1289 l 576 1017 l 34 1017 l 34 1289 l 576 1289 z "},"̅":{"ha":610,"x_min":34,"x_max":576,"o":"m 576 1289 l 576 1017 l 34 1017 l 34 1289 l 576 1289 z "},"̆":{"ha":610,"x_min":34,"x_max":576,"o":"m 543 1289 l 576 1017 q 305 983 441 983 q 34 1017 170 983 l 68 1289 q 305 1255 186 1255 q 543 1289 424 1255 z "},"̇":{"ha":339,"x_min":34,"x_max":305,"o":"m 305 1017 l 34 1017 l 34 1289 l 305 1289 l 305 1017 z "},"̈":{"ha":678,"x_min":34,"x_max":644,"o":"m 305 1017 l 34 1017 l 34 1289 l 305 1289 l 305 1017 m 644 1017 l 373 1017 l 373 1289 l 644 1289 l 644 1017 z "},"̉":{"ha":358,"x_min":34,"x_max":324,"o":"m 237 1221 q 170 1289 237 1289 q 102 1187 102 1289 l 34 1187 q 186 1356 34 1356 q 324 1246 324 1356 q 315 1160 324 1234 q 203 1017 305 1085 l 136 1017 q 237 1221 237 1153 z "},"̊":{"ha":373,"x_min":34,"x_max":339,"o":"m 186 1017 q 79 1060 123 1017 q 34 1162 34 1103 q 79 1265 34 1223 q 186 1308 123 1308 q 294 1265 250 1308 q 339 1162 339 1223 q 294 1060 339 1103 q 186 1017 250 1017 m 186 1085 q 247 1110 222 1085 q 271 1170 271 1135 q 247 1230 271 1205 q 186 1255 222 1255 q 126 1230 151 1255 q 102 1170 102 1205 q 126 1110 102 1135 q 186 1085 151 1085 z "},"̋":{"ha":845,"x_min":34,"x_max":811,"o":"m 305 1017 l 34 1017 l 170 1356 l 441 1356 l 305 1017 m 675 1017 l 404 1017 l 540 1356 l 811 1356 l 675 1017 z "},"̌":{"ha":746,"x_min":34,"x_max":712,"o":"m 373 1187 l 441 1356 l 712 1356 l 576 1017 l 170 1017 l 34 1356 l 305 1356 l 373 1187 z "},"̧":{"ha":305,"x_min":34,"x_max":271,"o":"m 68 -102 l 68 34 l 136 34 l 136 -34 q 271 -136 271 -34 q 136 -237 271 -237 l 34 -237 l 34 -170 l 102 -170 q 186 -153 170 -170 q 195 -136 195 -144 q 182 -114 195 -127 q 68 -102 170 -102 z "},"؉":{"ha":1289,"x_min":34,"x_max":1255,"o":"m 916 949 l 340 0 l 34 0 l 612 949 l 916 949 m 305 610 l 34 610 l 34 882 l 305 882 l 305 610 m 916 68 l 644 68 l 644 339 l 916 339 l 916 68 m 1255 68 l 983 68 l 983 339 l 1255 339 l 1255 68 z "},"–":{"ha":814,"x_min":68,"x_max":746,"o":"m 746 610 l 746 339 l 68 339 l 68 610 l 746 610 z "},"—":{"ha":1424,"x_min":68,"x_max":1356,"o":"m 1356 610 l 1356 339 l 68 339 l 68 610 l 1356 610 z "},"‘":{"ha":339,"x_min":34,"x_max":305,"o":"m 305 949 l 271 543 l 68 543 l 34 949 l 305 949 z "},"’":{"ha":339,"x_min":34,"x_max":305,"o":"m 305 949 l 271 543 l 68 543 l 34 949 l 305 949 z "},"‚":{"ha":339,"x_min":34,"x_max":305,"o":"m 305 136 l 305 -271 l 34 -271 l 34 136 l 305 136 z "},"“":{"ha":678,"x_min":34,"x_max":644,"o":"m 305 949 l 271 543 l 68 543 l 34 949 l 305 949 m 644 949 l 610 543 l 407 543 l 373 949 l 644 949 z "},"”":{"ha":678,"x_min":34,"x_max":644,"o":"m 305 949 l 271 543 l 68 543 l 34 949 l 305 949 m 644 949 l 610 543 l 407 543 l 373 949 l 644 949 z "},"„":{"ha":678,"x_min":34,"x_max":644,"o":"m 305 136 l 305 -271 l 34 -271 l 34 136 l 305 136 m 644 136 l 644 -271 l 373 -271 l 373 136 l 644 136 z "},"•":{"ha":339,"x_min":34,"x_max":305,"o":"m 170 339 q 74 379 113 339 q 34 475 34 418 q 74 571 34 531 q 170 610 113 610 q 266 571 226 610 q 305 475 305 531 q 266 379 305 418 q 170 339 226 339 z "},"…":{"ha":1153,"x_min":34,"x_max":1119,"o":"m 305 0 l 34 0 l 34 271 l 305 271 l 305 0 m 712 0 l 441 0 l 441 271 l 712 271 l 712 0 m 1119 0 l 848 0 l 848 271 l 1119 271 l 1119 0 z "},"‹":{"ha":882,"x_min":68,"x_max":814,"o":"m 68 610 l 814 949 l 814 678 l 339 475 l 814 271 l 814 0 l 68 339 l 68 610 z "},"›":{"ha":882,"x_min":68,"x_max":814,"o":"m 814 339 l 68 0 l 68 271 l 543 475 l 68 678 l 68 949 l 814 610 l 814 339 z "},"€":{"ha":968,"x_min":-68,"x_max":968,"o":"m 77 575 q 207 810 104 708 q 475 945 321 925 q 543 951 509 951 q 610 945 576 951 q 878 810 764 925 q 968 689 935 754 l 726 564 q 686 618 711 593 q 543 678 627 678 q 399 618 458 678 q 365 575 378 598 l 610 575 l 610 507 l 341 507 q 339 475 339 492 q 342 439 339 456 l 610 439 l 610 372 l 367 372 q 399 331 380 350 q 543 271 458 271 q 686 331 627 271 q 715 367 703 348 l 945 221 q 878 139 917 178 q 610 4 764 24 q 543 0 576 0 q 475 4 509 0 q 207 139 321 24 q 78 372 106 240 l -68 372 l -68 439 l 69 439 q 68 475 68 457 q 68 507 68 491 l -68 507 l -68 575 l 77 575 z "},"™":{"ha":796,"x_min":34,"x_max":762,"o":"m 239 853 l 239 610 l 142 610 l 142 853 l 34 853 l 34 950 l 349 950 l 349 853 l 239 853 m 762 950 l 762 610 l 665 610 l 665 772 l 616 610 l 519 610 l 471 772 l 471 610 l 374 610 l 374 950 l 495 950 l 568 756 l 641 950 l 762 950 z "},"−":{"ha":746,"x_min":34,"x_max":712,"o":"m 712 610 l 712 339 l 34 339 l 34 610 l 712 610 z "}}}
